<svg xmlns="http://www.w3.org/2000/svg" xmlns:xlink="http://www.w3.org/1999/xlink" width="1235" zoomAndPan="magnify" viewBox="0 0 926.25 681.000002" height="908" preserveAspectRatio="xMidYMid meet" version="1.0"><defs><g/><clipPath id="be0fdb3544"><path d="M 0.304688 0 L 925.195312 0 L 925.195312 680 L 0.304688 680 Z M 0.304688 0 " clip-rule="nonzero"/></clipPath><clipPath id="ab46f623f3"><rect x="0" width="609" y="0" height="171"/></clipPath><clipPath id="5be51733bd"><rect x="0" width="334" y="0" height="94"/></clipPath><clipPath id="1611459e6f"><path d="M 284.675781 21 L 640.402344 21 L 640.402344 377.445312 L 284.675781 377.445312 Z M 284.675781 21 " clip-rule="nonzero"/></clipPath></defs><g clip-path="url(#be0fdb3544)"><path fill="#ffffff" d="M 0.304688 0 L 925.195312 0 L 925.195312 680 L 0.304688 680 Z M 0.304688 0 " fill-opacity="1" fill-rule="nonzero"/></g><g transform="matrix(1, 0, 0, 1, 167, 409)"><g clip-path="url(#ab46f623f3)"><g fill="#152039" fill-opacity="1"><g transform="translate(2.771642, 122.626179)"><g><path d="M 55.421875 -15.8125 C 58.148438 -15.8125 60.039062 -16.078125 61.09375 -16.609375 L 61.359375 -16.546875 L 60.703125 0 L 11.328125 0 L 11.328125 -88.109375 C 12.515625 -88.023438 13.835938 -87.960938 15.296875 -87.921875 L 19.90625 -87.78125 C 22.976562 -87.695312 26.316406 -87.65625 29.921875 -87.65625 C 39.984375 -87.65625 49.9375 -87.828125 59.78125 -88.171875 C 59.289062 -84.304688 59.046875 -79.144531 59.046875 -72.6875 C 59.046875 -71.988281 59.09375 -71.460938 59.1875 -71.109375 L 59.046875 -70.90625 C 56.765625 -71.570312 53.515625 -71.90625 49.296875 -71.90625 L 28.53125 -71.90625 L 28.53125 -55.09375 L 44.15625 -55.09375 C 48.988281 -55.09375 51.890625 -55.222656 52.859375 -55.484375 L 53.046875 -39.21875 C 50.941406 -39.4375 48.21875 -39.546875 44.875 -39.546875 L 28.53125 -39.546875 L 28.53125 -15.8125 Z M 55.421875 -15.8125 "/></g></g></g><g fill="#152039" fill-opacity="1"><g transform="translate(89.258824, 122.626179)"><g><path d="M 39.671875 -34.078125 C 38.359375 -33.984375 36.953125 -33.9375 35.453125 -33.9375 C 33.960938 -33.9375 31.742188 -34.046875 28.796875 -34.265625 L 28.796875 0 L 11.328125 0 L 11.328125 -88.109375 C 17.484375 -88.898438 25.039062 -89.296875 34 -89.296875 C 46.21875 -89.296875 55.320312 -87.039062 61.3125 -82.53125 C 67.3125 -78.03125 70.3125 -71.082031 70.3125 -61.6875 C 70.3125 -54.394531 67.566406 -48.15625 62.078125 -42.96875 C 60.273438 -41.300781 58.210938 -39.851562 55.890625 -38.625 L 69.328125 -10.28125 C 71.960938 -4.4375 73.984375 -0.96875 75.390625 0.125 L 75.0625 0.46875 C 70.800781 -0.238281 64.101562 -0.21875 54.96875 0.53125 Z M 35.265625 -73.75 C 33.015625 -73.75 30.859375 -73.640625 28.796875 -73.421875 L 28.796875 -48.234375 C 30.953125 -47.929688 33.476562 -47.78125 36.375 -47.78125 C 39.28125 -47.78125 41.71875 -48.03125 43.6875 -48.53125 C 45.664062 -49.039062 47.378906 -49.820312 48.828125 -50.875 C 51.953125 -53.207031 53.515625 -56.703125 53.515625 -61.359375 C 53.515625 -66.015625 51.890625 -69.285156 48.640625 -71.171875 C 45.609375 -72.890625 41.148438 -73.75 35.265625 -73.75 Z M 35.265625 -73.75 "/></g></g></g><g fill="#152039" fill-opacity="1"><g transform="translate(186.74791, 122.626179)"><g><path d="M 17.734375 0.53125 C 13.953125 0.175781 9.535156 0 4.484375 0 L -0.71875 0 L 27.9375 -80.328125 C 29.21875 -83.929688 29.859375 -86.03125 29.859375 -86.625 C 29.859375 -87.21875 29.832031 -87.582031 29.78125 -87.71875 L 29.859375 -87.84375 C 32.710938 -87.71875 35.742188 -87.65625 38.953125 -87.65625 C 41.585938 -87.65625 44.75 -87.695312 48.4375 -87.78125 L 48.5 -87.65625 C 48.414062 -87.476562 48.375 -87.234375 48.375 -86.921875 C 48.375 -86.085938 49.03125 -83.867188 50.34375 -80.265625 L 79.609375 0.203125 C 78.734375 0.148438 77.703125 0.125 76.515625 0.125 C 76.515625 0.125 75.375 0.0820312 73.09375 0 C 71.988281 0 71 0 70.125 0 L 59.90625 0 L 53.703125 -18.984375 L 23.921875 -18.984375 Z M 48.5625 -34.796875 L 38.625 -65.4375 L 28.9375 -34.796875 Z M 48.5625 -34.796875 "/></g></g></g><g fill="#152039" fill-opacity="1"><g transform="translate(284.500513, 122.626179)"><g/></g></g><g fill="#152039" fill-opacity="1"><g transform="translate(348.127524, 122.626179)"><g><path d="M 66.71875 -6.421875 C 63.488281 -3.847656 59.304688 -1.859375 54.171875 -0.453125 C 49.035156 0.941406 42.71875 1.640625 35.21875 1.640625 C 27.726562 1.640625 19.765625 0.960938 11.328125 -0.390625 L 11.328125 -87.25 C 19.859375 -88.613281 27.253906 -89.296875 33.515625 -89.296875 C 39.773438 -89.296875 44.914062 -88.703125 48.9375 -87.515625 C 52.957031 -86.328125 56.238281 -84.722656 58.78125 -82.703125 C 63.789062 -78.796875 66.296875 -73.734375 66.296875 -67.515625 C 66.296875 -61.296875 64.035156 -56.144531 59.515625 -52.0625 C 64.867188 -50.394531 69.019531 -47.234375 71.96875 -42.578125 C 74.644531 -38.398438 75.984375 -33.773438 75.984375 -28.703125 C 75.984375 -23.628906 75.25 -19.289062 73.78125 -15.6875 C 72.3125 -12.082031 69.957031 -8.992188 66.71875 -6.421875 Z M 28.796875 -54.5 C 30.640625 -54.195312 32.945312 -54.046875 35.71875 -54.046875 C 38.488281 -54.046875 40.757812 -54.40625 42.53125 -55.125 C 44.3125 -55.851562 45.6875 -56.765625 46.65625 -57.859375 C 48.238281 -59.660156 49.03125 -62.164062 49.03125 -65.375 C 49.03125 -72.09375 45.078125 -75.453125 37.171875 -75.453125 C 33.828125 -75.453125 31.035156 -75.320312 28.796875 -75.0625 Z M 38.546875 -40.390625 C 34.859375 -40.390625 31.609375 -40.148438 28.796875 -39.671875 L 28.796875 -13.78125 C 31.867188 -12.988281 35.097656 -12.59375 38.484375 -12.59375 C 41.867188 -12.59375 44.84375 -13 47.40625 -13.8125 C 49.976562 -14.625 52.144531 -15.734375 53.90625 -17.140625 C 57.46875 -20.035156 59.25 -23.722656 59.25 -28.203125 C 59.25 -36.328125 52.347656 -40.390625 38.546875 -40.390625 Z M 38.546875 -40.390625 "/></g></g></g><g fill="#152039" fill-opacity="1"><g transform="translate(445.880128, 122.626179)"><g><path d="M 13.375 -87.921875 C 17.769531 -87.742188 20.429688 -87.65625 21.359375 -87.65625 L 26.09375 -87.65625 C 28.425781 -87.65625 30.296875 -87.828125 31.703125 -88.171875 L 31.640625 0 L 13.375 0 Z M 13.375 -87.921875 "/></g></g></g><g fill="#152039" fill-opacity="1"><g transform="translate(509.836514, 122.626179)"><g><path d="M 9.421875 -81.71875 C 9.421875 -83.164062 9.351562 -85.144531 9.21875 -87.65625 L 71.703125 -87.65625 L 33.34375 -15.8125 L 57.265625 -15.8125 C 63.503906 -15.8125 67.179688 -16 68.296875 -16.375 C 69.421875 -16.75 70.316406 -17.085938 70.984375 -17.390625 L 70.984375 0.984375 C 69.085938 0.804688 67.523438 0.648438 66.296875 0.515625 C 65.066406 0.390625 63.769531 0.285156 62.40625 0.203125 C 60.34375 0.0664062 56.347656 0 50.421875 0 L 6.0625 0 L 45.734375 -71.828125 L 24.984375 -71.828125 C 16.410156 -71.828125 10.960938 -71.367188 8.640625 -70.453125 C 9.160156 -72.648438 9.421875 -75.75 9.421875 -79.75 Z M 9.421875 -81.71875 "/></g></g></g></g></g><g transform="matrix(1, 0, 0, 1, 299, 567)"><g clip-path="url(#5be51733bd)"><g fill="#152039" fill-opacity="1"><g transform="translate(2.023777, 75.831024)"><g><path d="M 49.671875 -49.390625 C 48.140625 -45.390625 46.648438 -40.039062 45.203125 -33.34375 L 43.671875 -33.34375 C 43.953125 -35.15625 44.09375 -36.757812 44.09375 -38.15625 C 44.09375 -40.394531 43.71875 -42.234375 42.96875 -43.671875 C 42.132812 -45.390625 40.890625 -46.722656 39.234375 -47.671875 C 37.585938 -48.628906 35.789062 -49.109375 33.84375 -49.109375 C 29.976562 -49.109375 26.242188 -47.296875 22.640625 -43.671875 C 19.035156 -40.046875 16.113281 -35.476562 13.875 -29.96875 C 11.644531 -24.457031 10.53125 -19.117188 10.53125 -13.953125 C 10.53125 -9.484375 11.414062 -6.085938 13.1875 -3.765625 C 14.957031 -1.441406 17.398438 -0.28125 20.515625 -0.28125 C 22.554688 -0.28125 24.71875 -0.753906 27 -1.703125 C 29.28125 -2.660156 31.253906 -4 32.921875 -5.71875 C 34.140625 -6.925781 35.1875 -8.332031 36.0625 -9.9375 C 36.945312 -11.539062 37.992188 -13.8125 39.203125 -16.75 L 40.75 -16.75 C 38.5625 -8.695312 37.1875 -3.113281 36.625 0 L 35.09375 0 C 35.226562 -0.976562 35.296875 -1.769531 35.296875 -2.375 C 35.296875 -3.582031 35.019531 -4.1875 34.46875 -4.1875 C 34.132812 -4.1875 33.644531 -3.976562 33 -3.5625 C 30.582031 -1.976562 28.460938 -0.820312 26.640625 -0.09375 C 24.828125 0.625 22.550781 0.984375 19.8125 0.984375 C 14.644531 0.984375 10.644531 -0.410156 7.8125 -3.203125 C 4.976562 -5.992188 3.5625 -10.066406 3.5625 -15.421875 C 3.5625 -20.765625 4.894531 -26.15625 7.5625 -31.59375 C 10.238281 -37.039062 13.914062 -41.53125 18.59375 -45.0625 C 23.269531 -48.601562 28.394531 -50.375 33.96875 -50.375 C 36.664062 -50.375 38.722656 -49.988281 40.140625 -49.21875 C 41.566406 -48.445312 42.976562 -47.320312 44.375 -45.84375 C 44.695312 -45.414062 45.046875 -45.203125 45.421875 -45.203125 C 45.835938 -45.203125 46.265625 -45.539062 46.703125 -46.21875 C 47.148438 -46.894531 47.648438 -47.953125 48.203125 -49.390625 Z M 49.671875 -49.390625 "/></g></g></g><g fill="#152039" fill-opacity="1"><g transform="translate(48.750646, 75.831024)"><g><path d="M 1.46875 -9.96875 C 1.46875 -13.644531 2.28125 -17.585938 3.90625 -21.796875 C 5.53125 -26.003906 7.878906 -29.5625 10.953125 -32.46875 C 14.023438 -35.382812 17.582031 -36.84375 21.625 -36.84375 C 24.601562 -36.84375 26.941406 -35.921875 28.640625 -34.078125 C 30.335938 -32.242188 31.1875 -29.515625 31.1875 -25.890625 C 31.1875 -22.210938 30.367188 -18.269531 28.734375 -14.0625 C 27.109375 -9.851562 24.757812 -6.289062 21.6875 -3.375 C 18.625 -0.46875 15.066406 0.984375 11.015625 0.984375 C 8.046875 0.984375 5.710938 0.0664062 4.015625 -1.765625 C 2.316406 -3.609375 1.46875 -6.34375 1.46875 -9.96875 Z M 21.203125 -35.4375 C 18.835938 -35.4375 16.59375 -33.925781 14.46875 -30.90625 C 12.351562 -27.882812 10.65625 -24.101562 9.375 -19.5625 C 8.101562 -15.03125 7.46875 -10.671875 7.46875 -6.484375 C 7.46875 -4.390625 7.789062 -2.851562 8.4375 -1.875 C 9.09375 -0.90625 10.09375 -0.421875 11.4375 -0.421875 C 13.8125 -0.421875 16.054688 -1.929688 18.171875 -4.953125 C 20.285156 -7.972656 21.984375 -11.75 23.265625 -16.28125 C 24.546875 -20.820312 25.1875 -25.1875 25.1875 -29.375 C 25.1875 -31.46875 24.859375 -33 24.203125 -33.96875 C 23.554688 -34.945312 22.554688 -35.4375 21.203125 -35.4375 Z M 21.203125 -35.4375 "/></g></g></g><g fill="#152039" fill-opacity="1"><g transform="translate(82.784562, 75.831024)"><g><path d="M 36.96875 -11.296875 L 35.234375 -6.203125 C 33.554688 -1.410156 30.742188 0.984375 26.796875 0.984375 C 24.703125 0.984375 23.234375 0.304688 22.390625 -1.046875 C 22.023438 -1.609375 21.84375 -2.375 21.84375 -3.34375 C 21.84375 -4.601562 22.234375 -6.421875 23.015625 -8.796875 L 29.65625 -28.75 C 30.113281 -30.28125 30.34375 -31.414062 30.34375 -32.15625 C 30.34375 -33.789062 29.597656 -34.609375 28.109375 -34.609375 C 26.347656 -34.609375 24.335938 -33.316406 22.078125 -30.734375 C 19.828125 -28.148438 17.609375 -24.601562 15.421875 -20.09375 C 13.234375 -15.582031 11.347656 -10.582031 9.765625 -5.09375 L 8.515625 0 L 2.4375 0 L 10.8125 -29.921875 C 11.132812 -31.140625 11.296875 -32.003906 11.296875 -32.515625 C 11.296875 -33.671875 10.785156 -34.25 9.765625 -34.25 C 8.742188 -34.25 7.835938 -33.738281 7.046875 -32.71875 C 6.253906 -31.695312 5.367188 -29.835938 4.390625 -27.140625 L 3.484375 -24.5625 L 2.15625 -24.5625 L 3.90625 -29.65625 C 5.582031 -34.445312 8.347656 -36.84375 12.203125 -36.84375 C 13.691406 -36.84375 14.75 -36.476562 15.375 -35.75 C 16.007812 -35.03125 16.328125 -34.019531 16.328125 -32.71875 C 16.328125 -31.46875 16 -29.582031 15.34375 -27.0625 L 12.90625 -17.515625 C 15.882812 -24.535156 18.734375 -29.507812 21.453125 -32.4375 C 24.171875 -35.375 27.160156 -36.84375 30.421875 -36.84375 C 34.179688 -36.84375 36.0625 -35.097656 36.0625 -31.609375 C 36.0625 -30.066406 35.710938 -28.296875 35.015625 -26.296875 L 28.25 -5.9375 C 27.882812 -4.8125 27.703125 -3.925781 27.703125 -3.28125 C 27.703125 -2.164062 28.257812 -1.609375 29.375 -1.609375 C 30.300781 -1.609375 31.191406 -2.128906 32.046875 -3.171875 C 32.910156 -4.222656 33.8125 -6.070312 34.75 -8.71875 L 35.65625 -11.296875 Z M 36.96875 -11.296875 "/></g></g></g><g fill="#152039" fill-opacity="1"><g transform="translate(123.234683, 75.831024)"><g><path d="M 4.109375 -1.046875 C 4.578125 -0.816406 5.03125 -0.65625 5.46875 -0.5625 C 5.914062 -0.46875 6.535156 -0.421875 7.328125 -0.421875 C 9.421875 -0.421875 11.117188 -1.046875 12.421875 -2.296875 C 13.722656 -3.554688 14.375 -5.328125 14.375 -7.609375 C 14.375 -9.097656 14.09375 -10.550781 13.53125 -11.96875 C 12.976562 -13.382812 12.050781 -15 10.75 -16.8125 C 9.164062 -18.945312 8.007812 -20.703125 7.28125 -22.078125 C 6.5625 -23.453125 6.203125 -25.066406 6.203125 -26.921875 C 6.203125 -28.835938 6.691406 -30.550781 7.671875 -32.0625 C 8.648438 -33.570312 9.960938 -34.742188 11.609375 -35.578125 C 13.265625 -36.421875 15.066406 -36.84375 17.015625 -36.84375 C 19.441406 -36.84375 21.46875 -36.382812 23.09375 -35.46875 C 24.71875 -34.5625 25.53125 -32.992188 25.53125 -30.765625 C 25.53125 -29.929688 25.257812 -29.117188 24.71875 -28.328125 C 24.1875 -27.535156 23.390625 -27.140625 22.328125 -27.140625 C 21.535156 -27.140625 20.867188 -27.414062 20.328125 -27.96875 C 19.796875 -28.53125 19.53125 -29.226562 19.53125 -30.0625 C 19.53125 -31.550781 20.179688 -33.113281 21.484375 -34.75 C 20.597656 -35.300781 19.4375 -35.578125 18 -35.578125 C 16.226562 -35.578125 14.773438 -34.984375 13.640625 -33.796875 C 12.503906 -32.609375 11.9375 -30.992188 11.9375 -28.953125 C 11.9375 -27.742188 12.144531 -26.707031 12.5625 -25.84375 C 12.976562 -24.988281 13.742188 -23.722656 14.859375 -22.046875 L 16.109375 -20.234375 C 17.503906 -18.085938 18.539062 -16.25 19.21875 -14.71875 C 19.894531 -13.1875 20.234375 -11.601562 20.234375 -9.96875 C 20.234375 -7.882812 19.6875 -6.003906 18.59375 -4.328125 C 17.5 -2.648438 16.03125 -1.34375 14.1875 -0.40625 C 12.351562 0.519531 10.367188 0.984375 8.234375 0.984375 C 5.578125 0.984375 3.34375 0.414062 1.53125 -0.71875 C -0.28125 -1.863281 -1.1875 -3.601562 -1.1875 -5.9375 C -1.1875 -6.71875 -0.960938 -7.429688 -0.515625 -8.078125 C -0.078125 -8.734375 0.601562 -9.0625 1.53125 -9.0625 C 2.550781 -9.0625 3.316406 -8.644531 3.828125 -7.8125 C 4.347656 -6.976562 4.609375 -5.929688 4.609375 -4.671875 C 4.609375 -3.878906 4.441406 -2.671875 4.109375 -1.046875 Z M 4.109375 -1.046875 "/></g></g></g><g fill="#152039" fill-opacity="1"><g transform="translate(149.806244, 75.831024)"><g><path d="M 34.8125 -11.296875 L 36.140625 -11.296875 L 34.390625 -6.203125 C 32.722656 -1.410156 29.910156 0.984375 25.953125 0.984375 C 25.210938 0.984375 24.515625 0.816406 23.859375 0.484375 C 23.210938 0.160156 22.722656 -0.300781 22.390625 -0.90625 C 22.109375 -1.5625 21.96875 -2.28125 21.96875 -3.0625 C 21.96875 -4.28125 22.296875 -6.191406 22.953125 -8.796875 L 25.109375 -17.515625 C 22.410156 -10.859375 19.78125 -6.109375 17.21875 -3.265625 C 14.664062 -0.429688 11.878906 0.984375 8.859375 0.984375 C 4.953125 0.984375 3 -0.804688 3 -4.390625 C 3 -5.878906 3.328125 -7.601562 3.984375 -9.5625 L 10.75 -29.921875 C 11.113281 -31.046875 11.296875 -31.910156 11.296875 -32.515625 C 11.296875 -33.671875 10.738281 -34.25 9.625 -34.25 C 8.695312 -34.25 7.800781 -33.722656 6.9375 -32.671875 C 6.082031 -31.628906 5.1875 -29.785156 4.25 -27.140625 L 3.34375 -24.5625 L 2.015625 -24.5625 L 3.765625 -29.65625 C 5.441406 -34.445312 8.253906 -36.84375 12.203125 -36.84375 C 15.460938 -36.84375 17.09375 -35.398438 17.09375 -32.515625 C 17.09375 -31.117188 16.71875 -29.300781 15.96875 -27.0625 L 9.34375 -7.109375 C 8.882812 -5.710938 8.65625 -4.550781 8.65625 -3.625 C 8.65625 -2.039062 9.398438 -1.25 10.890625 -1.25 C 12.703125 -1.25 14.695312 -2.585938 16.875 -5.265625 C 19.0625 -7.941406 21.222656 -11.648438 23.359375 -16.390625 C 25.503906 -21.140625 27.367188 -26.488281 28.953125 -32.4375 L 29.796875 -35.859375 C 32.441406 -35.953125 34.554688 -36.28125 36.140625 -36.84375 L 27.484375 -5.9375 C 27.160156 -4.71875 27 -3.804688 27 -3.203125 C 27 -2.140625 27.488281 -1.609375 28.46875 -1.609375 C 29.488281 -1.609375 30.425781 -2.15625 31.28125 -3.25 C 32.144531 -4.34375 33.019531 -6.164062 33.90625 -8.71875 Z M 34.8125 -11.296875 "/></g></g></g><g fill="#152039" fill-opacity="1"><g transform="translate(189.349723, 75.831024)"><g><path d="M 7.109375 -5.9375 C 6.835938 -4.957031 6.703125 -4.140625 6.703125 -3.484375 C 6.703125 -2.234375 7.234375 -1.609375 8.296875 -1.609375 C 9.234375 -1.609375 10.109375 -2.140625 10.921875 -3.203125 C 11.734375 -4.273438 12.601562 -6.113281 13.53125 -8.71875 L 14.4375 -11.296875 L 15.765625 -11.296875 L 14.015625 -6.203125 C 12.390625 -1.410156 9.601562 0.984375 5.65625 0.984375 C 2.445312 0.984375 0.84375 -0.53125 0.84375 -3.5625 C 0.84375 -4.71875 1.164062 -6.460938 1.8125 -8.796875 L 13.1875 -46.53125 C 13.414062 -47.375 13.53125 -48.023438 13.53125 -48.484375 C 13.53125 -49.410156 13.171875 -50.082031 12.453125 -50.5 C 11.734375 -50.925781 10.515625 -51.140625 8.796875 -51.140625 L 9.28125 -52.609375 C 11.738281 -52.648438 13.957031 -52.898438 15.9375 -53.359375 C 17.914062 -53.828125 19.835938 -54.53125 21.703125 -55.46875 Z M 7.109375 -5.9375 "/></g></g></g><g fill="#152039" fill-opacity="1"><g transform="translate(208.668141, 75.831024)"><g><path d="M 8.4375 -5.9375 C 8.300781 -5.375 8.234375 -4.859375 8.234375 -4.390625 C 8.234375 -3.460938 8.507812 -2.765625 9.0625 -2.296875 C 9.625 -1.835938 10.347656 -1.609375 11.234375 -1.609375 C 12.390625 -1.609375 13.46875 -2.109375 14.46875 -3.109375 C 15.46875 -4.109375 16.457031 -5.929688 17.4375 -8.578125 L 18.421875 -11.296875 L 19.75 -11.296875 L 18.28125 -6.90625 C 17.300781 -4.019531 16.03125 -1.984375 14.46875 -0.796875 C 12.914062 0.390625 11 0.984375 8.71875 0.984375 C 6.625 0.984375 5.066406 0.472656 4.046875 -0.546875 C 3.023438 -1.578125 2.515625 -3 2.515625 -4.8125 C 2.515625 -6.019531 2.722656 -7.347656 3.140625 -8.796875 L 10.53125 -34.46875 L 4.25 -34.46875 L 4.609375 -35.859375 L 10.890625 -35.859375 L 13.953125 -46.46875 C 16.460938 -46.5625 18.554688 -46.882812 20.234375 -47.4375 L 16.953125 -35.859375 L 26.15625 -35.859375 L 25.953125 -34.46875 L 16.53125 -34.46875 Z M 8.4375 -5.9375 "/></g></g></g><g fill="#152039" fill-opacity="1"><g transform="translate(232.101305, 75.831024)"><g><path d="M 13.109375 -47.65625 C 13.109375 -49.050781 13.628906 -50.289062 14.671875 -51.375 C 15.722656 -52.46875 16.925781 -53.015625 18.28125 -53.015625 C 19.351562 -53.015625 20.210938 -52.664062 20.859375 -51.96875 C 21.515625 -51.269531 21.84375 -50.410156 21.84375 -49.390625 C 21.84375 -47.992188 21.304688 -46.757812 20.234375 -45.6875 C 19.160156 -44.625 17.953125 -44.09375 16.609375 -44.09375 C 15.578125 -44.09375 14.734375 -44.425781 14.078125 -45.09375 C 13.429688 -45.769531 13.109375 -46.625 13.109375 -47.65625 Z M 11.015625 -29.921875 C 11.390625 -31.046875 11.578125 -31.910156 11.578125 -32.515625 C 11.578125 -33.671875 11.066406 -34.25 10.046875 -34.25 C 8.972656 -34.25 8.019531 -33.691406 7.1875 -32.578125 C 6.351562 -31.460938 5.46875 -29.648438 4.53125 -27.140625 L 3.5625 -24.5625 L 2.234375 -24.5625 L 4.046875 -29.65625 C 4.972656 -32.300781 6.210938 -34.160156 7.765625 -35.234375 C 9.328125 -36.304688 10.972656 -36.84375 12.703125 -36.84375 C 15.765625 -36.84375 17.296875 -35.375 17.296875 -32.4375 C 17.296875 -30.90625 16.925781 -29.113281 16.1875 -27.0625 L 8.71875 -5.9375 C 8.34375 -4.8125 8.15625 -3.945312 8.15625 -3.34375 C 8.15625 -2.1875 8.71875 -1.609375 9.84375 -1.609375 C 10.8125 -1.609375 11.710938 -2.140625 12.546875 -3.203125 C 13.390625 -4.273438 14.300781 -6.113281 15.28125 -8.71875 L 16.25 -11.296875 L 17.578125 -11.296875 L 15.765625 -6.203125 C 14.835938 -3.648438 13.617188 -1.8125 12.109375 -0.6875 C 10.597656 0.425781 8.957031 0.984375 7.1875 0.984375 C 3.925781 0.984375 2.296875 -0.4375 2.296875 -3.28125 C 2.296875 -4.625 2.71875 -6.460938 3.5625 -8.796875 Z M 11.015625 -29.921875 "/></g></g></g><g fill="#152039" fill-opacity="1"><g transform="translate(253.163257, 75.831024)"><g><path d="M 36.96875 -11.296875 L 35.234375 -6.203125 C 33.554688 -1.410156 30.742188 0.984375 26.796875 0.984375 C 24.703125 0.984375 23.234375 0.304688 22.390625 -1.046875 C 22.023438 -1.609375 21.84375 -2.375 21.84375 -3.34375 C 21.84375 -4.601562 22.234375 -6.421875 23.015625 -8.796875 L 29.65625 -28.75 C 30.113281 -30.28125 30.34375 -31.414062 30.34375 -32.15625 C 30.34375 -33.789062 29.597656 -34.609375 28.109375 -34.609375 C 26.347656 -34.609375 24.335938 -33.316406 22.078125 -30.734375 C 19.828125 -28.148438 17.609375 -24.601562 15.421875 -20.09375 C 13.234375 -15.582031 11.347656 -10.582031 9.765625 -5.09375 L 8.515625 0 L 2.4375 0 L 10.8125 -29.921875 C 11.132812 -31.140625 11.296875 -32.003906 11.296875 -32.515625 C 11.296875 -33.671875 10.785156 -34.25 9.765625 -34.25 C 8.742188 -34.25 7.835938 -33.738281 7.046875 -32.71875 C 6.253906 -31.695312 5.367188 -29.835938 4.390625 -27.140625 L 3.484375 -24.5625 L 2.15625 -24.5625 L 3.90625 -29.65625 C 5.582031 -34.445312 8.347656 -36.84375 12.203125 -36.84375 C 13.691406 -36.84375 14.75 -36.476562 15.375 -35.75 C 16.007812 -35.03125 16.328125 -34.019531 16.328125 -32.71875 C 16.328125 -31.46875 16 -29.582031 15.34375 -27.0625 L 12.90625 -17.515625 C 15.882812 -24.535156 18.734375 -29.507812 21.453125 -32.4375 C 24.171875 -35.375 27.160156 -36.84375 30.421875 -36.84375 C 34.179688 -36.84375 36.0625 -35.097656 36.0625 -31.609375 C 36.0625 -30.066406 35.710938 -28.296875 35.015625 -26.296875 L 28.25 -5.9375 C 27.882812 -4.8125 27.703125 -3.925781 27.703125 -3.28125 C 27.703125 -2.164062 28.257812 -1.609375 29.375 -1.609375 C 30.300781 -1.609375 31.191406 -2.128906 32.046875 -3.171875 C 32.910156 -4.222656 33.8125 -6.070312 34.75 -8.71875 L 35.65625 -11.296875 Z M 36.96875 -11.296875 "/></g></g></g><g fill="#152039" fill-opacity="1"><g transform="translate(293.613378, 75.831024)"><g><path d="M 30.90625 -39.703125 C 32.164062 -39.703125 33.15625 -39.351562 33.875 -38.65625 C 34.59375 -37.957031 34.953125 -36.910156 34.953125 -35.515625 C 34.953125 -34.304688 34.648438 -33.375 34.046875 -32.71875 C 33.441406 -32.070312 32.722656 -31.75 31.890625 -31.75 C 31.003906 -31.75 30.222656 -32.050781 29.546875 -32.65625 C 28.867188 -33.257812 28.53125 -34.140625 28.53125 -35.296875 C 28.53125 -36.140625 28.738281 -37.117188 29.15625 -38.234375 C 27.34375 -37.441406 26.019531 -36.460938 25.1875 -35.296875 C 27.132812 -33.953125 28.109375 -31.859375 28.109375 -29.015625 C 28.109375 -26.972656 27.609375 -24.972656 26.609375 -23.015625 C 25.609375 -21.066406 24.191406 -19.382812 22.359375 -17.96875 C 20.523438 -16.550781 18.394531 -15.609375 15.96875 -15.140625 L 13.671875 -13.890625 C 11.484375 -12.722656 9.890625 -11.789062 8.890625 -11.09375 C 7.890625 -10.394531 7.390625 -9.71875 7.390625 -9.0625 C 7.390625 -8.550781 7.710938 -8.109375 8.359375 -7.734375 C 9.015625 -7.367188 10.085938 -7 11.578125 -6.625 L 16.671875 -5.296875 C 19.328125 -4.597656 21.304688 -3.832031 22.609375 -3 C 23.910156 -2.164062 24.5625 -0.910156 24.5625 0.765625 C 24.5625 2.535156 23.828125 4.421875 22.359375 6.421875 C 20.890625 8.421875 18.628906 10.117188 15.578125 11.515625 C 12.535156 12.910156 8.785156 13.609375 4.328125 13.609375 C 0.742188 13.609375 -1.988281 13.140625 -3.875 12.203125 C -5.757812 11.273438 -6.703125 10 -6.703125 8.375 C -6.703125 6.789062 -5.835938 5.195312 -4.109375 3.59375 C -2.390625 1.988281 0.046875 0.722656 3.203125 -0.203125 L 3.703125 0.84375 C 0.671875 2.414062 -0.84375 4.53125 -0.84375 7.1875 C -0.84375 8.957031 -0.226562 10.269531 1 11.125 C 2.238281 11.988281 3.882812 12.421875 5.9375 12.421875 C 7.976562 12.421875 10.09375 12 12.28125 11.15625 C 14.46875 10.320312 16.269531 9.21875 17.6875 7.84375 C 19.101562 6.476562 19.8125 5.050781 19.8125 3.5625 C 19.8125 2.90625 19.625 2.460938 19.25 2.234375 C 18.882812 2.003906 18.117188 1.75 16.953125 1.46875 L 6.28125 -1.25 C 3.769531 -1.90625 2.515625 -3.300781 2.515625 -5.4375 C 2.515625 -6.882812 3.269531 -8.316406 4.78125 -9.734375 C 6.289062 -11.148438 9.140625 -12.859375 13.328125 -14.859375 L 12.84375 -14.859375 C 10.144531 -14.859375 7.957031 -15.5 6.28125 -16.78125 C 4.601562 -18.0625 3.765625 -19.957031 3.765625 -22.46875 C 3.765625 -24.414062 4.273438 -26.503906 5.296875 -28.734375 C 6.328125 -30.972656 7.976562 -32.882812 10.25 -34.46875 C 12.53125 -36.050781 15.414062 -36.84375 18.90625 -36.84375 C 20.90625 -36.84375 22.578125 -36.535156 23.921875 -35.921875 C 24.804688 -37.046875 25.875 -37.957031 27.125 -38.65625 C 28.382812 -39.351562 29.644531 -39.703125 30.90625 -39.703125 Z M 13.53125 -16.109375 C 15.675781 -16.109375 17.375 -16.929688 18.625 -18.578125 C 19.882812 -20.234375 20.742188 -22.15625 21.203125 -24.34375 C 21.671875 -26.53125 21.90625 -28.554688 21.90625 -30.421875 C 21.90625 -32.140625 21.671875 -33.425781 21.203125 -34.28125 C 20.742188 -35.144531 19.882812 -35.578125 18.625 -35.578125 C 16.394531 -35.578125 14.613281 -34.585938 13.28125 -32.609375 C 11.957031 -30.640625 11.050781 -28.46875 10.5625 -26.09375 C 10.082031 -23.71875 9.84375 -21.785156 9.84375 -20.296875 C 9.84375 -17.503906 11.070312 -16.109375 13.53125 -16.109375 Z M 13.53125 -16.109375 "/></g></g></g></g></g><g clip-path="url(#1611459e6f)"><path fill="#052234" d="M 563.730469 53.507812 C 572.5 59.589844 580.699219 66.453125 588.226562 73.980469 C 620.398438 106.152344 640.289062 150.59375 640.289062 199.675781 C 640.289062 224.300781 635.285156 247.753906 626.234375 269.074219 C 621.070312 264.363281 614.765625 259.878906 609.210938 256.421875 C 607.496094 255.355469 605.753906 254.324219 603.996094 253.339844 C 610.320312 236.667969 613.792969 218.578125 613.792969 199.683594 C 613.792969 157.910156 596.859375 120.097656 569.488281 92.722656 C 567.617188 90.851562 565.691406 89.023438 563.722656 87.257812 L 563.722656 53.507812 Z M 520.890625 315.832031 C 492.136719 318.59375 468.125 308.351562 444.796875 292.316406 C 443.453125 291.394531 442.113281 290.375 440.8125 289.28125 C 426.546875 304.242188 402.300781 312.335938 382.679688 315.167969 C 377.207031 315.953125 371.679688 316.320312 366.171875 316.292969 C 352.757812 316.222656 339.363281 313.808594 326.675781 309.421875 C 324.871094 308.796875 322.984375 308.101562 321.066406 307.347656 C 325.914062 313.710938 331.183594 319.734375 336.828125 325.382812 C 369 357.546875 413.441406 377.445312 462.53125 377.445312 C 511.621094 377.445312 556.058594 357.546875 588.226562 325.375 C 598.378906 315.21875 607.308594 303.84375 614.773438 291.484375 C 600.757812 294.082031 587.417969 297.851562 573.785156 302.160156 L 573.777344 302.167969 L 573.785156 302.167969 C 571.972656 302.742188 570.152344 303.324219 568.328125 303.917969 C 552.875 308.917969 537.148438 314.277344 520.890625 315.832031 Z M 462.53125 21.90625 C 471.769531 21.90625 480.84375 22.609375 489.707031 23.976562 L 445.136719 49.398438 C 410.316406 53.386719 379.078125 69.195312 355.566406 92.714844 C 328.191406 120.089844 311.261719 157.902344 311.261719 199.675781 C 311.261719 224.859375 317.421875 248.609375 328.304688 269.496094 C 320.921875 273.234375 313.367188 276.675781 305.410156 279.753906 L 304.042969 280.285156 C 291.71875 256.089844 284.765625 228.695312 284.765625 199.675781 C 284.765625 150.59375 304.664062 106.144531 336.828125 73.980469 C 369 41.804688 413.441406 21.90625 462.53125 21.90625 Z M 462.53125 21.90625 " fill-opacity="1" fill-rule="nonzero"/></g><path fill="#dba656" d="M 441.046875 63.9375 L 441.046875 227.734375 C 453.742188 229.183594 466.320312 232.882812 479.039062 237.949219 C 480.691406 238.605469 482.367188 239.367188 484.007812 240.246094 L 484.007812 39.429688 Z M 510.164062 24.511719 L 510.164062 242.9375 C 524 238.507812 539.679688 237.40625 553.125 238.207031 L 553.125 0 Z M 371.929688 103.367188 L 371.929688 244.699219 C 380.824219 239.679688 389.964844 235.089844 399.625 231.894531 C 404.769531 230.195312 409.855469 228.972656 414.890625 228.1875 L 414.890625 78.855469 Z M 371.929688 103.367188 " fill-opacity="1" fill-rule="evenodd"/><path fill="#052234" d="M 309.238281 289.636719 C 309.238281 289.636719 340.769531 310.496094 381.179688 304.667969 C 411.910156 300.234375 428.5 287.441406 434.554688 280.40625 C 441.378906 272.476562 432.132812 268.605469 426.304688 272.636719 C 419.738281 277.179688 402.285156 287.257812 402.992188 281.648438 C 406.511719 253.960938 458.121094 248.796875 479.808594 261.933594 C 479.808594 261.933594 486.007812 265.851562 487.472656 261.578125 C 488.9375 257.304688 485.773438 252.019531 475.121094 247.785156 C 398.976562 217.507812 380.738281 262.007812 309.238281 289.636719 " fill-opacity="1" fill-rule="evenodd"/><path fill="#dba656" d="M 621.839844 279.574219 C 621.839844 279.574219 595.722656 252.246094 555.035156 248.964844 C 524.089844 246.464844 505.066406 255.257812 497.601562 260.777344 C 489.191406 266.988281 497.351562 272.816406 503.921875 270.183594 C 511.332031 267.207031 530.589844 261.253906 528.652344 266.566406 C 519.078125 292.785156 467.605469 286.375 449.375 268.75 C 449.375 268.75 444.203125 263.554688 441.824219 267.398438 C 439.445312 271.238281 441.363281 277.097656 450.808594 283.589844 C 518.339844 330.007812 545.988281 290.65625 621.839844 279.574219 " fill-opacity="1" fill-rule="evenodd"/></svg>